<?xml version="1.0" encoding="UTF-8"?>
<svg id="Camada_2" data-name="Camada 2" xmlns="http://www.w3.org/2000/svg" viewBox="0 0 1646.55 1199.15">
  <defs>
    <style>
      .cls-1 {
        fill: #fff;
      }

      .cls-2 {
        fill: #562592;
      }
    </style>
  </defs>
  <g id="Camada_1-2" data-name="Camada 1">
    <g>
      <path class="cls-2" d="M860.04,986.92l-7.18,40.34-145.16,40.28,1.67-48.05c-51.98,61.01-140.84,85.05-208.61,40.26-48.63,39.45-109.15,57.56-170.81,52.69-29.76-2.35-55.7-12.63-79.87-29.11-2.4-1.63-6.77-2.8-10.14-3.34l14.28,22-245.53,97.15c13.29-17.32,28.37-29.45,43.41-43.24l87.56-80.3-6.13-14.54,68.07-49.67-8.64-49.18-141.62-161.8L0,739.93l90.63-21.91L5.89,586.87l123.07,8.76-46-179.79,92.99,117.68c12.16-83.25,44.88-156.08,119.08-196.62,48.72-25.69,102.5-32.09,157.03-21.01l-53.36-25.04c-4.11-1.93-10.35-2.6-14.54-.95-16.29,6.42-31.6.89-42.09-13.01-17.01-22.54-7.58-59.54-45.95-73.42-20.5-7.41-23.33-28.99-22.49-51.77.6-16.4,10.52-30.17,25.5-36.86,68.08-30.38,178.7-45.04,254.63-44.77,50.78.18,98.78,8.03,148.22,17.23,24.15,4.49,47.45,8.88,72.04,6.59,26.34-2.46,50.64-10.42,74.93-21.58C953.72,24.17,1065.87-1.92,1181.55.11l45.07,4.37c16.07,1.56,28.93,14.77,30.15,30.58l2.32,30.09c.63,8.19-5.2,19.17-11.76,23.77-38.95,27.34-17.6,59.99-36.98,94.26-9.97,17.62-25.39,16.86-41.46,18.16-20.77,9.86-38.19,27.69-57.32,40.2,51-11.64,97.67-20.43,141.84,12.63l5.14-26.73,245.46-39.1-35.62,149.16-14.96,4.38-17.07,82.06,41.4-11.32-29.93,134.89,31.94-5.78-1.55,88.27,102.44-134.07-42.58,155.79,108.47-12.6-77.08,127.42,62.09,15.86-164.63,192.19-55.93,64.74,45.59-95.33-108.98,23.4-3.62-58.89-14.25,3.54-15.01,55.29-117.46,32.18c-9.36,46.3-47.92,78.87-95.47,78.91-19.3.02-36.24-3.96-54.87-10.13l14.32-67.77c-17.15-8.5-31.66-19.08-46.42-33.38l-3.41,26.24-133.59,46.7-17.79-53.14ZM403.72,267.55c79.7,40.75,169.41,55.82,255.04,39.36,23.46-4.51,40.86-17.17,52.61-37.88,14.17-24.97,24.11-51.51,35.54-77.89,6.66-15.37,20.73-25.26,35.92-25.66,15.34-.41,28.88,8.71,37.31,22.05l36.99,58.56c15.5,24.55,41.31,34.59,70.44,32.59,66.08-4.56,130.19-26.26,183.62-65.36l33.64-24.63c22.82-16.71,41.9,4.33,48.85-14.87l-9.77-7.56c6.29,1.44,12.37,3.43,15.6,1.26,2.25-8.7,3.76-20.73,3.64-29.45-.39-28.04,12.85-49,34.95-64.5,9.49-14.77,4.34-50.26-11.85-53.8-23.06-5.04-46.28-5.33-70.68-4.98-93.42,1.37-184.12,20.24-269.7,56.93l-38.01,16.29c1.75,6.45,2.26,10.58,1.79,13.92l-5.92-11.65c-21.92,8.29-42.53,16.03-65.81,18.28-26.7,2.58-51.31-2.42-78.38-7.18l-5.15,14.43c-2.02-4.25-2.21-9.5.95-15.35-100.25-20.16-178.69-21.08-280.59-3.56-37,6.36-71.71,16.09-106.53,29.15-22.47,8.43-21.45,35.7-12.27,59.23,24.08,5.91,41.65,21.04,48.11,44.36l7.87,28.4c.46,1.65,2.14,6.39,3.85,6.27l7.76-.54-1.13,8.48c-.25,1.85,5.3,3.39,7.26,2.95l34.08-7.65ZM740.95,294.27l113.38-19.9c-15.73-17.88-25.51-36.77-37.14-56.09l-16.6-27.58c-13.29-9.32-32.47-5.13-39.09,10.69l-25.97,61.96c-6.3,15.02-16.59,28.87-26.22,41.57l27.63,18.62,4-29.28ZM1406.65,418.35l14.34-65.93-79.5,14.44,9.63-49.86,96.24-17.13,19.98-76.92-183.88,31.06-50.59,327.5,184.38-38.61,19.81-80.86-115.29,24.79,9.69-53.08,75.19-15.38ZM1157.33,597.43l75.42-39.9-65.99-94.9c51.22-30.53,91.66-86.07,86.99-144.73-1.09-27.31-17.93-47.61-44.24-53.96-21.85-4.84-44.42-4.33-66.93,1.14l-112.07,27.24-38.58,268.89-7.33,51.8,83.16-17.37,14.28-103.55,75.29,105.33ZM904.44,631.17l78.41-45.01-66.58-92.5c53.24-30.42,99.27-91.55,84.97-151.37-8.04-33.63-37.28-43.76-70.89-45.67-25.01,1.17-49.34,3.23-74.24,7.76l-83.39,15.15-41.2,334.6,83.47-20.93,14.55-112.85,19.13,28.74,55.77,82.08ZM544.37,674.01c54,8.27,106.42-13.28,139.98-56.22,46.48-59.48,65.28-138.9,50.63-212.64-8.21-41.32-37.95-71.15-78.42-77.76-59.65-9.75-116.96,16.61-150.08,67.34-42.86,65.65-62.01,166.35-24.08,236.33,12.72,23.47,34.28,38.71,61.97,42.95ZM360.96,619.65c-33.45-.07-56.12-23.81-58.38-55.7-2.51-35.33,7.12-70.84,26.63-100.55,15.85-24.14,41.72-36.98,70.63-34.04l.5,36.7,54.94-6.22,23.6-97.79c-22.92-14.79-49.13-21.87-77.05-22.65-67.55-1.89-128.4,31.92-162.3,90.17-55.17,94.79-52.14,254.43,54.61,275.49,56.91,11.23,113.96-5.62,164.5-32.39l-13.97-75.9c-27.41,12.6-53.69,22.95-83.7,22.89ZM195.13,885.82l-70.76-114.02,86.9-9.49-79.97-115.29,56.14.02c-7.06-21.45-10.77-40.87-12.82-62.23l-53.13-87.07,33.76,121.09-108.96-7.42,87.6,123.21-88.56,18.33,32.16,35.25,114.05,129.59,3.58-31.96ZM1498.15,889.98l-11.97,28.2,104.61-125.03-55.71-11.17,74.51-115.73-95.84,8.17,29.38-100.53-40.6,68.47-28.76,54.35,67.99,2.75-64.43,99.63,52.25,10.51-52.08,89.64,20.65-9.28ZM1094.35,999.19l25.34-.24c2.08-.02,5.48,5.67,4.4,7.32-8.15,12.45-20.89,11.44-36.95,7.82l-6.15,30.28c21.02,3.31,41.05,2.85,58.93-8.46,16.74-10.6,28.83-30.75,21.46-50.01-4.17-10.88-17.38-9.87-28.26-16.82,28.07-9.77,53.64-16.31,77-34.7l-6.82,27.09,87.06-18.99,18.03-62.35,62.17-12.9,1.9,64.28,78.44-17.68-2.59-336.6-122.71,22.45-67.97,193.47-37.17,109.87-8.24-47.8c-20.93,16.7-44.08,28.17-70.08,28.23-22.82.05-39.77-14.07-43.94-36.87-8.14-44.5,4.03-92.06,32.95-127.03,14.64-17.7,36.02-26.61,58-21.97l.82,33.39,51.26-4.54,21.41-95.16c-10.89-6.77-22.29-12.15-34.5-15.45-72.15-19.49-144.03,13.67-179.98,78.69-24.21,43.79-35.87,92.31-35.92,143.2-.06,66.89,23.75,127.36,95.12,130.36l-13,31.12ZM825.46,1005.22l17.13-172.92,55.9,168.84,85.79-29.6,8.65-94.08,27.05-243.96-81.24,16.12-19.14,163.65-51.25-159.64-91.55,33.26-15.21,148.7-20.09,192.86,83.96-23.23ZM687.18,996.94c29.81-36.69,47.06-80.03,54.82-126.72,10.64-64.05,6.76-148.2-56.69-175.77-37.09-16.12-77.83-11.05-113.5,7.66-27.32,14.34-47.8,37.05-63.73,64.14-32.09,54.57-44.34,119.37-34.75,181.96,3.99,26.03,12.71,49.37,28.2,69.67,44.97,58.94,136.72,39.3,185.66-20.94ZM263.15,742.39c-19.64-10.44-35.38-20.98-51.66-34.24l35.45,53.48,16.2-19.24ZM316.56,946.35c-6.73-40.94,4.95-84.08,31.39-116.05,15.67-18.94,37.52-28.97,62.06-26.57l-1.44,35.2,53.53-7.96,22.2-93.11c-21.12-13.66-43.79-19.27-68.59-20.28-55.53-2.27-106.39,21.63-140.52,65.89-49.44,64.12-71.85,163.96-36.53,237.37,41.33,85.9,156.82,72.98,229.02,24.82l-14.44-76.31c-16.38,8.66-31.39,16.39-49.24,20.92-40.19,10.21-80.61-2.45-87.43-43.93ZM204.53,847.49l23.98-54.39-54.9,4.38,30.92,50.01ZM186.29,1107.12l34.6-14.5-16.85-20.72,24.06-10.49-14.79-25.4-49.22,26.27,8.29,15.99-86.45,70.78,100.35-41.93Z"/>
      <path class="cls-1" d="M1094.35,999.19l13-31.12c-71.37-3-95.19-63.47-95.12-130.36.05-50.89,11.71-99.41,35.92-143.2,35.95-65.02,107.83-98.19,179.98-78.69,12.2,3.3,23.61,8.68,34.5,15.45l-21.41,95.16-51.26,4.54-.82-33.39c-21.98-4.64-43.36,4.27-58,21.97-28.93,34.98-41.1,82.54-32.95,127.03,4.17,22.79,21.12,36.92,43.94,36.87,26.01-.06,49.15-11.53,70.08-28.23l8.24,47.8,37.17-109.87,67.97-193.47,122.71-22.45,2.59,336.6-78.44,17.68-1.9-64.28-62.17,12.9-18.03,62.35-87.06,18.99,6.82-27.09c-23.36,18.4-48.93,24.94-77,34.7,10.88,6.95,24.09,5.94,28.26,16.82,7.38,19.26-4.72,39.41-21.46,50.01-17.88,11.32-37.9,11.77-58.93,8.46l6.15-30.28c16.06,3.62,28.8,4.63,36.95-7.82,1.08-1.65-2.32-7.34-4.4-7.32l-25.34.24ZM1370.47,797.23l-2.77-111.2-40.99,120.27,43.76-9.08Z"/>
      <polygon class="cls-1" points="825.46 1005.22 741.5 1028.44 761.6 835.58 776.81 686.88 868.36 653.62 919.61 813.26 938.75 649.62 1019.99 633.5 992.93 877.46 984.28 971.53 898.5 1001.13 842.6 832.29 825.46 1005.22"/>
      <path class="cls-1" d="M687.18,996.94c-48.95,60.24-140.69,79.88-185.66,20.94-15.49-20.3-24.21-43.64-28.2-69.67-9.59-62.59,2.66-127.39,34.75-181.96,15.93-27.09,36.41-49.8,63.73-64.14,35.67-18.71,76.41-23.78,113.5-7.66,63.45,27.58,67.33,111.73,56.69,175.77-7.75,46.69-25.01,90.03-54.82,126.72ZM608.61,957.28c52.33-28.81,64.63-148.5,33.56-177.93-9.84-9.33-25.52-9.17-37.23-2.24-45.26,26.74-64.3,133.5-36.81,171.97,9.39,13.14,25.41,16.5,40.47,8.21Z"/>
      <path class="cls-1" d="M544.37,674.01c-27.69-4.24-49.25-19.48-61.97-42.95-37.93-69.98-18.78-170.69,24.08-236.33,33.12-50.73,90.43-77.08,150.08-67.34,40.46,6.61,70.2,36.44,78.42,77.76,14.66,73.74-4.15,153.16-50.63,212.64-33.55,42.94-85.98,64.49-139.98,56.22ZM592.04,592.9c47.77-11.79,72.74-110.08,54.8-159.82-6-16.63-21.41-25.53-39.01-21.09-12.58,3.18-23,12.25-30.6,23.46-44.22,65.29-35.83,169.95,14.81,157.45Z"/>
      <path class="cls-1" d="M1157.33,597.43l-75.29-105.33-14.28,103.55-83.16,17.37,7.33-51.8,38.58-268.89,112.07-27.24c22.51-5.47,45.07-5.98,66.93-1.14,26.31,6.35,43.15,26.65,44.24,53.96,4.68,58.66-35.77,114.2-86.99,144.73l65.99,94.9-75.42,39.9ZM1164.93,364c5.68-25.02-35.2-20.05-63.62-8.64l-9.66,70.33c31.68-9.61,67.08-34.39,73.28-61.7Z"/>
      <path class="cls-1" d="M360.96,619.65c30,.06,56.29-10.3,83.7-22.89l13.97,75.9c-50.54,26.77-107.59,43.62-164.5,32.39-106.75-21.06-109.78-180.7-54.61-275.49,33.9-58.25,94.75-92.07,162.3-90.17,27.92.78,54.13,7.87,77.05,22.65l-23.6,97.79-54.94,6.22-.5-36.7c-28.91-2.95-54.78,9.9-70.63,34.04-19.51,29.7-29.14,65.22-26.63,100.55,2.27,31.88,24.93,55.63,58.38,55.7Z"/>
      <path class="cls-1" d="M316.56,946.35c6.82,41.49,47.25,54.14,87.43,43.93,17.85-4.53,32.86-12.26,49.24-20.92l14.44,76.31c-72.2,48.16-187.69,61.07-229.02-24.82-35.32-73.41-12.91-173.26,36.53-237.37,34.13-44.26,84.98-68.16,140.52-65.89,24.8,1.01,47.47,6.62,68.59,20.28l-22.2,93.11-53.53,7.96,1.44-35.2c-24.54-2.4-46.39,7.62-62.06,26.57-26.44,31.97-38.12,75.11-31.39,116.05Z"/>
      <polygon class="cls-1" points="1406.65 418.35 1331.46 433.73 1321.76 486.81 1437.05 462.03 1417.24 542.89 1232.86 581.5 1283.45 254 1467.33 222.94 1447.35 299.87 1351.12 317 1341.49 366.86 1420.99 352.42 1406.65 418.35"/>
      <path class="cls-1" d="M195.13,885.82l-3.58,31.96-114.05-129.59-32.16-35.25,88.56-18.33-87.6-123.21,108.96,7.42-33.76-121.09,53.13,87.07c2.05,21.36,5.76,40.78,12.82,62.23l-56.14-.02,79.97,115.29-86.9,9.49,70.76,114.02Z"/>
      <polygon class="cls-1" points="1498.15 889.98 1477.51 899.26 1529.59 809.62 1477.34 799.11 1541.77 699.48 1473.78 696.72 1502.54 642.37 1543.14 573.91 1513.76 674.44 1609.6 666.27 1535.09 781.99 1590.79 793.16 1486.18 918.19 1498.15 889.98"/>
      <polygon class="cls-1" points="186.29 1107.12 85.94 1149.05 172.39 1078.27 164.1 1062.28 213.32 1036.01 228.11 1061.41 204.05 1071.9 220.9 1092.63 186.29 1107.12"/>
      <polygon class="cls-1" points="204.53 847.49 173.61 797.48 228.51 793.1 204.53 847.49"/>
      <path class="cls-1" d="M263.15,742.39l-16.2,19.24-35.45-53.48c16.27,13.26,32.02,23.8,51.66,34.24Z"/>
      <polygon class="cls-2" points="1370.47 797.23 1326.71 806.31 1367.7 686.04 1370.47 797.23"/>
      <path class="cls-2" d="M608.61,957.28c-15.07,8.29-31.08,4.94-40.47-8.21-27.49-38.47-8.46-145.23,36.81-171.97,11.71-6.92,27.39-7.08,37.23,2.24,31.07,29.43,18.77,149.13-33.56,177.93Z"/>
      <path class="cls-2" d="M592.04,592.9c-50.64,12.5-59.04-92.16-14.81-157.45,7.6-11.22,18.02-20.28,30.6-23.46,17.6-4.45,33.01,4.46,39.01,21.09,17.94,49.75-7.03,148.04-54.8,159.82Z"/>
      <g>
        <path class="cls-1" d="M904.44,631.17l-55.77-82.08-19.13-28.74-14.55,112.85-83.47,20.93,41.2-334.6,83.39-15.15c24.89-4.52,49.22-6.59,74.24-7.76,33.6,1.91,62.85,12.04,70.89,45.67,14.29,59.82-31.73,120.95-84.97,151.37l66.58,92.5-78.41,45.01ZM912.76,395.66c.97-3.68-1.03-11.57-3.54-13.83-10.82-9.71-41.15-2.28-61.85,3.66l-10,70.29c28.7-8.2,67.5-30.19,75.39-60.12Z"/>
        <path class="cls-2" d="M912.76,395.66c-7.89,29.93-46.69,51.92-75.39,60.12l10-70.29c20.7-5.93,51.04-13.36,61.85-3.66,2.51,2.25,4.51,10.15,3.54,13.83Z"/>
      </g>
      <path class="cls-2" d="M1164.93,364c-6.2,27.31-41.6,52.09-73.28,61.7l9.66-70.33c28.42-11.41,69.3-16.38,63.62,8.64Z"/>
      <g>
        <path class="cls-1" d="M403.72,267.55l-34.08,7.65c-1.96.44-7.5-1.09-7.26-2.95l1.13-8.48-7.76.54c-1.71.12-3.39-4.61-3.85-6.27l-7.87-28.4c-6.47-23.32-24.03-38.45-48.11-44.36-9.19-23.53-10.2-50.8,12.27-59.23,34.82-13.06,69.53-22.79,106.53-29.15,101.9-17.52,180.34-16.6,280.59,3.56-3.16,5.85-2.97,11.1-.95,15.35l5.15-14.43c27.07,4.76,51.68,9.76,78.38,7.18,23.29-2.25,43.9-9.99,65.81-18.28l5.92,11.65c.47-3.34-.04-7.47-1.79-13.92l38.01-16.29c85.58-36.69,176.29-55.56,269.7-56.93,24.39-.36,47.62-.07,70.68,4.98,16.18,3.54,21.34,39.03,11.85,53.8-22.1,15.5-35.34,36.46-34.95,64.5.12,8.72-1.39,20.75-3.64,29.45-3.23,2.17-9.31.18-15.6-1.26l9.77,7.56c-6.95,19.19-26.02-1.84-48.85,14.87l-33.64,24.63c-53.43,39.11-117.54,60.81-183.62,65.36-29.13,2.01-54.93-8.04-70.44-32.59l-36.99-58.56c-8.42-13.33-21.97-22.45-37.31-22.05-15.19.4-29.26,10.29-35.92,25.66-11.43,26.38-21.37,52.92-35.54,77.89-11.75,20.71-29.15,33.37-52.61,37.88-85.63,16.46-175.34,1.39-255.04-39.36ZM1162.39,148.27l11.27,8.38-8.21-12.7c12.31-17.75,20.75-36.76,20.88-58.11s-13.05-39.72-35.05-44.25c-70.82-14.56-185.09,16.9-253.4,47.87-35.91,16.28-73.31,46.57-61.09,85.23,9.45,29.9,29.04,56.02,56.07,71.88,22.23,13.04,47.61,15.51,73.22,11.66,72.82-10.94,149.72-52.7,196.31-109.96ZM1228.39,50.88l4.7-13.77c-5.72,2.01-13.21,6.23-15.69,12.49-.77,1.96.64,8.14,2.5,8.87,1.49.58,4.19.68,5.56-.14s1.9-4.47,2.92-7.45ZM603.62,297.57c31.61-1.97,61.33-12.23,83.33-34.71,19.73-20.16,33.07-45.7,39.04-73.12,5.66-26-7.58-50.24-31-61.35-15.98-7.59-32.46-12.31-50.53-15.77-69.53-13.28-140.28-12.21-209.75,1.32-28.82,5.61-66.14,16.78-76.92,41.88-12.6,29.34,4.35,58.35,29.42,78.77l-12.21,17.68,17.46-13.85c55.47,40.62,142.36,63.43,211.16,59.13ZM816.92,141.88l5.95-20.95c-10.77,1.42-15.98,14.94-15.93,22.11.01,1.67,4.51,5.19,5.78,4.36s3.66-3.63,4.2-5.52ZM752.21,147.31c-2.99-10.19-10.32-14.89-18.2-16.72l7.65,19.62c1.2,3.07,4.02,6.4,6.89,5.66,1.98-.51,4.28-6.47,3.67-8.56ZM315.46,160.17c-2.75-10.09-9.51-12.81-17.32-11.29,9.26,8.66,4.74,23.43,14.28,20.42,2.41-.76,3.79-6.35,3.04-9.12Z"/>
        <path class="cls-1" d="M740.95,294.27l-4,29.28-27.63-18.62c9.63-12.69,19.92-26.54,26.22-41.57l25.97-61.96c6.63-15.81,25.8-20,39.09-10.69l16.6,27.58c11.63,19.32,21.41,38.21,37.14,56.09l-113.38,19.9Z"/>
        <path class="cls-2" d="M603.62,297.57c-68.8,4.29-155.69-18.52-211.16-59.13l-17.46,13.85,12.21-17.68c-25.07-20.42-42.01-49.43-29.42-78.77,10.78-25.11,48.1-36.27,76.92-41.88,69.47-13.53,140.23-14.61,209.75-1.32,18.07,3.45,34.54,8.18,50.53,15.77,23.42,11.11,36.66,35.35,31,61.35-5.97,27.42-19.31,52.95-39.04,73.12-22,22.48-51.72,32.74-83.33,34.71ZM672.04,261.83c22.04-18.9,37.3-45.71,43.37-73.72,5.34-24.62-8.52-45.04-30.84-53.3-75.43-27.88-184.67-26.42-262.79-7.19-31.03,7.64-62.88,21.84-57.6,54.09,6.36,38.83,52.11,64.7,88.82,78.88,64.18,24.8,165.61,47.06,219.04,1.24Z"/>
        <path class="cls-2" d="M1162.39,148.27c-46.59,57.26-123.49,99.02-196.31,109.96-25.61,3.85-50.98,1.38-73.22-11.66-27.03-15.85-46.62-41.98-56.07-71.88-12.21-38.66,25.19-68.95,61.09-85.23,68.31-30.97,182.58-62.43,253.4-47.87,22.01,4.52,35.19,22.02,35.05,44.25s-8.57,40.35-20.88,58.11l8.21,12.7-11.27-8.38ZM981.29,245.72c57.5-13.23,109.34-41.03,151.78-80.36,21.76-20.16,38.95-44.24,42.53-73.11,2.55-20.52-8.89-38.08-28.74-41.15-73.73-11.4-179.73,16.99-248.2,49.11-21,9.85-40.22,23.14-50.14,43.74-7.18,14.9-2.03,31.96,5.2,45.75,26.78,51.04,69.59,69.35,127.56,56.02Z"/>
        <path class="cls-2" d="M752.21,147.31c.61,2.08-1.69,8.04-3.67,8.56-2.86.74-5.69-2.59-6.89-5.66l-7.65-19.62c7.89,1.83,15.21,6.53,18.2,16.72Z"/>
        <path class="cls-2" d="M816.92,141.88c-.54,1.89-2.93,4.68-4.2,5.52s-5.77-2.69-5.78-4.36c-.05-7.18,5.16-20.69,15.93-22.11l-5.95,20.95Z"/>
        <path class="cls-2" d="M315.46,160.17c.76,2.77-.63,8.36-3.04,9.12-9.54,3.01-5.02-11.75-14.28-20.42,7.81-1.52,14.57,1.2,17.32,11.29Z"/>
        <path class="cls-2" d="M1228.39,50.88c-1.02,2.98-1.56,6.63-2.92,7.45s-4.07.73-5.56.14c-1.86-.73-3.27-6.92-2.5-8.87,2.47-6.27,9.96-10.48,15.69-12.49l-4.7,13.77Z"/>
        <path class="cls-2" d="M672.04,261.83c-53.43,45.82-154.86,23.55-219.04-1.24-36.71-14.18-82.47-40.05-88.82-78.88-5.28-32.25,26.57-46.45,57.6-54.09,78.12-19.23,187.36-20.69,262.79,7.19,22.33,8.25,36.18,28.68,30.84,53.3-6.08,28.02-21.33,54.82-43.37,73.72Z"/>
        <path class="cls-2" d="M981.29,245.72c-57.97,13.33-100.78-4.98-127.56-56.02-7.23-13.79-12.38-30.85-5.2-45.75,9.92-20.6,29.14-33.89,50.14-43.74,68.47-32.12,174.47-60.5,248.2-49.11,19.85,3.07,31.28,20.64,28.74,41.15-3.58,28.87-20.77,52.94-42.53,73.11-42.44,39.33-94.28,67.13-151.78,80.36Z"/>
      </g>
    </g>
  </g>
</svg>