<svg xmlns="http://www.w3.org/2000/svg" xmlns:xlink="http://www.w3.org/1999/xlink" viewBox="0 0 840 680" width="840" height="680" font-family="Poppins, sans-serif">
  <defs>
    <linearGradient id="headerGrad" x1="0" y1="0" x2="1" y2="0">
      <stop offset="0" stop-color="#4C1D95"></stop>
      <stop offset="1" stop-color="#6B21A8"></stop>
    </linearGradient>
    <filter id="numShadow" x="-20%" y="-20%" width="140%" height="140%">
      <feDropShadow dx="0" dy="4" stdDeviation="8" flood-color="#6B21A8" flood-opacity="0.12"></feDropShadow>
    </filter>
    <clipPath id="midBand">
      <rect x="2" y="110" width="836" height="420"></rect>
    </clipPath>
  </defs>

  
  <rect x="2" y="2" width="836" height="676" rx="16" fill="#FFFFFF" stroke="#6B21A8" stroke-width="4"></rect>

  
  <g clip-path="url(#midBand)" stroke="#6B21A8" stroke-opacity="0.04" stroke-width="50">
    <line x1="-100" y1="680" x2="940" y2="0"></line>
    <line x1="70" y1="680" x2="1110" y2="0"></line>
    <line x1="240" y1="680" x2="1280" y2="0"></line>
    <line x1="410" y1="680" x2="1450" y2="0"></line>
    <line x1="580" y1="680" x2="1620" y2="0"></line>
  </g>

  
  <path d="M2 18 Q2 2 18 2 H822 Q838 2 838 18 V110 H2 Z" fill="url(#headerGrad)"></path>
  <rect x="20" y="15" width="120" height="80" rx="10" fill="#FFFFFF"></rect>
  <image x="30" y="22" width="100" height="66" preserveAspectRatio="xMidYMid meet" xlink:href="{{LOGO_DATA_URI}}"></image>
  <text x="500" y="58" text-anchor="middle" fill="#FFFFFF" font-size="32" font-weight="900" letter-spacing="3">CORRE CONÇA</text>
  <text x="500" y="82" text-anchor="middle" fill="#E9D5FF" font-size="13">06 de setembro de 2026 · Conceição da Feira - BA</text>

  
  <text x="420" y="430" text-anchor="middle" font-size="280" font-weight="900" fill="#6B21A8" letter-spacing="-10" filter="url(#numShadow)">{{NUMERO_BIB}}</text>

  
  <rect x="2" y="530" width="836" height="146" fill="#F5F3FF"></rect>
  <line x1="0" y1="530" x2="840" y2="530" stroke="#E9D5FF" stroke-width="1.5"></line>

  <text x="40" y="563" fill="#9CA3AF" font-size="11" font-weight="600" letter-spacing="2">ATLETA</text>
  <text x="40" y="592" fill="#1E0A3C" font-size="22" font-weight="700">{{NOME_ATLETA}}</text>

  <line x1="520" y1="550" x2="520" y2="615" stroke="#E9D5FF" stroke-width="1.5"></line>

  <text x="545" y="563" fill="#9CA3AF" font-size="11" font-weight="600" letter-spacing="2">MODALIDADE</text>
  <text x="545" y="592" fill="#6B21A8" font-size="20" font-weight="700">{{MODALIDADE}}</text>

  <text x="420" y="662" text-anchor="middle" fill="#9CA3AF" font-size="12">1ª CORRE CONÇA · correconca.com</text>
</svg>